<?xml version="1.0" encoding="utf-8"?>
<!-- Generator: Adobe Illustrator 16.2.0, SVG Export Plug-In . SVG Version: 6.00 Build 0)  -->
<!DOCTYPE svg PUBLIC "-//W3C//DTD SVG 1.1//EN" "http://www.w3.org/Graphics/SVG/1.1/DTD/svg11.dtd">
<svg version="1.1" id="icons" xmlns="http://www.w3.org/2000/svg" xmlns:xlink="http://www.w3.org/1999/xlink" x="0px" y="0px"
	 width="94px" height="105.696px" viewBox="0 0 94 105.696" enable-background="new 0 0 94 105.696" xml:space="preserve">
<g>
	<path fill="#1EC2F3" d="M0,30.558c0-2.664,1.888-5.935,4.195-7.267L42.805,0.999c2.308-1.332,6.083-1.332,8.391,0l38.609,22.292
		C92.113,24.623,94,27.894,94,30.558V75.14c0,2.664-1.887,5.935-4.195,7.267l-38.609,22.292c-2.308,1.332-6.083,1.332-8.391,0
		L4.195,82.406C1.888,81.074,0,77.804,0,75.14V30.558z"/>
	<path fill="#1EC2F3" d="M0,30.558c0-2.664,1.888-5.935,4.195-7.267L42.805,0.999c2.308-1.332,6.083-1.332,8.391,0l38.609,22.292
		C92.113,24.623,94,27.894,94,30.558V75.14c0,2.664-1.887,5.935-4.195,7.267l-38.609,22.292c-2.308,1.332-6.083,1.332-8.391,0
		L4.195,82.406C1.888,81.074,0,77.804,0,75.14V30.558z"/>
</g>
<g>
	<path fill="#FFFFFF" d="M14.086,58.049v7.32c0,0.425,0.174,0.84,0.477,1.141c0.295,0.303,0.713,0.472,1.139,0.472h8.584
		c0.133-4.356,3.68-7.846,8.07-7.851c4.391,0.005,7.936,3.498,8.07,7.851H55.74c0.127,0.021,0.248,0.075,0.377,0.075h3.801
		c0.096-4.391,3.662-7.921,8.076-7.926c4.42,0.005,7.99,3.535,8.084,7.926h1.559c0.596,0,1.188-0.244,1.613-0.669
		c0.42-0.421,0.664-1.011,0.664-1.608v-7.038c-0.053-1.355-0.658-2.053-1.143-2.647c-1.051-1.162-2.533-2.155-3.484-2.781
		c-0.15-1.998-0.662-4.406-1.746-6.664c-1.258-2.676-3.814-5.438-7.703-5.434h-9.262v-6.176c0-0.426-0.176-0.84-0.477-1.144
		c-0.301-0.298-0.717-0.47-1.146-0.47H15.701c-0.422,0-0.842,0.17-1.143,0.47c-0.301,0.304-0.473,0.718-0.473,1.144v23.925
		c0,0.015,0.006,0.029,0.006,0.046C14.092,58.023,14.086,58.036,14.086,58.049z M60.799,44.779h5.039
		c1.553,0.006,2.605,0.939,3.604,2.871c0.805,1.619,1.209,3.723,1.297,5.227h-9.939V44.779z M17.314,35.652l36.027,0.004v20.694
		H17.314V35.652z"/>
	<path fill="#FFFFFF" d="M74.041,67.229c0-0.059-0.016-0.112-0.018-0.172c-0.096-3.256-2.746-5.869-6.025-5.875
		c-3.283,0.006-5.932,2.619-6.025,5.875c0,0.06-0.016,0.113-0.016,0.172c0,3.336,2.705,6.037,6.041,6.043
		C71.336,73.266,74.041,70.564,74.041,67.229z M66.061,67.229c0-0.061,0.031-0.112,0.037-0.172c0.094-0.986,0.895-1.765,1.9-1.765
		s1.807,0.778,1.902,1.765c0.006,0.06,0.035,0.111,0.035,0.172c-0.004,1.066-0.869,1.932-1.938,1.932S66.066,68.295,66.061,67.229z"
		/>
	<path fill="#FFFFFF" d="M38.396,67.229c0-0.084-0.021-0.162-0.027-0.247c-0.135-3.22-2.758-5.794-6.016-5.8
		c-3.252,0.006-5.887,2.58-6.016,5.8c-0.006,0.085-0.025,0.163-0.025,0.247c0,3.336,2.705,6.037,6.041,6.043
		C35.691,73.266,38.396,70.564,38.396,67.229z M30.416,67.229c0-0.087,0.041-0.162,0.053-0.247c0.131-0.948,0.906-1.689,1.885-1.689
		s1.758,0.741,1.887,1.689c0.01,0.085,0.051,0.16,0.051,0.247c-0.004,1.066-0.873,1.932-1.938,1.932
		C31.283,69.16,30.42,68.295,30.416,67.229z"/>
</g>
</svg>
