<?xml version="1.0" encoding="utf-8"?>
<!-- Generator: Adobe Illustrator 17.1.0, SVG Export Plug-In . SVG Version: 6.00 Build 0)  -->
<!DOCTYPE svg PUBLIC "-//W3C//DTD SVG 1.1//EN" "http://www.w3.org/Graphics/SVG/1.1/DTD/svg11.dtd">
<svg version="1.1" id="icons" xmlns="http://www.w3.org/2000/svg" xmlns:xlink="http://www.w3.org/1999/xlink" x="0px" y="0px"
	 viewBox="0 0 658 106" enable-background="new 0 0 658 106" xml:space="preserve">
<g>
	<path fill="#1EC2F3" d="M101.216,21.698l32.568-18.803c4.465-2.578,9.967-2.578,14.432,0l32.568,18.803
		c4.465,2.578,7.216,7.342,7.216,12.498v37.607c0,5.156-2.751,9.92-7.216,12.498l-32.568,18.803c-4.465,2.578-9.967,2.578-14.432,0
		l-32.568-18.803C96.751,81.724,94,76.959,94,71.803V34.197C94,29.041,96.751,24.276,101.216,21.698z"/>
	<path fill="#FFFFFF" d="M176.389,52.519L176.389,52.519c-33.862,2.5-55.142,5.121-63.763,8.83
		c-7.782,3.352-8.067,9.945-8.067,9.945h57.56c5.639-7.461,9.684-12.521,14.898-17.459C177.65,53.238,177.677,52.425,176.389,52.519
		z M122.371,66.294c-0.932,0.045-1.723-0.671-1.77-1.602c-0.046-0.931,0.671-1.723,1.601-1.769c0.931-0.046,1.723,0.671,1.77,1.601
		C124.019,65.455,123.303,66.248,122.371,66.294z M131.758,65.824c-0.932,0.047-1.723-0.67-1.77-1.6
		c-0.046-0.931,0.671-1.723,1.602-1.769c0.93-0.047,1.723,0.67,1.77,1.6C133.403,64.986,132.688,65.778,131.758,65.824z
		 M141.143,65.354c-0.93,0.047-1.722-0.671-1.769-1.601c-0.046-0.932,0.67-1.723,1.602-1.768c0.93-0.047,1.722,0.669,1.768,1.599
		C142.79,64.515,142.074,65.307,141.143,65.354z M117.178,49.029c0.557-0.132,3.972-0.959,8.619-1.934l-4.983,9.612
		c0.066-0.015,0.132-0.03,0.198-0.044c3.816-0.824,8.391-1.584,13.744-2.305c8.896-1.197,19.943-2.285,33.152-3.337
		c-5.336-2.29-13.379-3.758-13.379-3.758s-5.477-0.123-14.188,1.023c-1.241,0.11-2.428-0.138-3.467-0.929
		c0,0-0.816-0.807-2.028-2.004c6.336-1.098,13.052-1.965,17.711-1.777c0,0-1.759-2.479-2.212-3.114
		c-0.696-0.979-1.855-1.711-3.405-1.629c-2.316,0.122-8.379,0.822-15.764,2.897c-3.251-3.209-6.699-6.611-6.788-6.684
		c-0.168-0.139-0.448-0.343-0.729-0.343c-0.281,0-1.965,0.255-2.297,0.331c-0.332,0.077-0.535,0.357-0.307,0.74
		c0.068,0.113,2.479,4.889,4.006,7.914c-2.812,1.018-5.712,2.236-8.588,3.693C115.279,47.99,115.621,49.392,117.178,49.029z"/>
</g>
<g>
	<path fill="#1EC2F3" d="M195.216,21.698l32.568-18.803c4.465-2.578,9.967-2.578,14.432,0l32.568,18.803
		c4.465,2.578,7.216,7.342,7.216,12.498v37.607c0,5.156-2.751,9.92-7.216,12.498l-32.568,18.803c-4.465,2.578-9.967,2.578-14.432,0
		l-32.568-18.803C190.751,81.724,188,76.959,188,71.803V34.197C188,29.041,190.751,24.276,195.216,21.698z"/>
	<path fill="#FFFFFF" d="M268.377,60.384L268.377,60.384c-0.238-0.42-0.602-0.97-1.084-1.668c-1.682-2.424-4.768-6.518-7.447-10.023
		c-0.709-0.928-1.385-1.813-2.002-2.613h-12.389v20.545h5.391c0.053-0.416,0.141-0.822,0.266-1.211
		c0.131-0.424,0.303-0.828,0.506-1.214c1.209-2.276,3.602-3.829,6.359-3.829c2.758,0,5.15,1.553,6.358,3.829
		c0.205,0.386,0.375,0.79,0.508,1.214c0.123,0.389,0.211,0.795,0.266,1.211h0.416c0.436-0.002,0.826-0.108,1.213-0.277
		c0.572-0.256,1.129-0.668,1.574-1.26c0.445-0.59,0.758-1.384,0.756-2.283C269.068,62.034,268.84,61.21,268.377,60.384z
		 M257.699,56.508c-1.285,0-8.393,0-8.393,0l0.01-6.731h6.557c0,0,2.559,3.569,3.063,4.406
		C259.439,55.019,258.984,56.508,257.699,56.508z M262.664,43.95c0.508-0.132,1.057-0.319,1.59-0.637
		c0.521-0.315,1.063-0.792,1.348-1.519c0.133-0.34,0.18-0.683,0.182-1.02c-0.006-0.82-0.273-1.645-0.732-2.48
		c-0.693-1.251-1.861-2.517-3.522-3.49c-1.658-0.97-3.807-1.627-6.398-1.626c-1.9,0-8.07-0.038-12.053-0.038
		c-4.271-0.008-7.145,1.07-9.367,2.095c-1.111,0.511-2.064,0.993-2.959,1.331c-0.898,0.339-1.727,0.54-2.68,0.541
		c-3.744,0-18.594,0-24.088,0c-0.832-0.001-1.604,0.273-2.162,0.775c-0.557,0.496-0.893,1.217-0.889,1.964v23.569
		c0,0.787,0.248,1.576,0.795,2.199c0.533,0.617,1.379,1.01,2.287,1.01c0.01,0,0.021,0,0.033,0h10.828
		c0.053-0.416,0.141-0.822,0.266-1.211c0.131-0.424,0.303-0.828,0.506-1.214c1.209-2.276,3.602-3.829,6.359-3.829
		s5.15,1.553,6.357,3.829c0.205,0.386,0.375,0.79,0.51,1.214c0.121,0.389,0.209,0.795,0.264,1.211h14.336V44.1h18.486
		C262.18,44.062,262.418,44.012,262.664,43.95z M212.057,49.556c0,0.99-0.807,1.795-1.795,1.795h-3.625
		c-0.992,0-1.795-0.805-1.795-1.795v-3.588c0-0.992,0.803-1.797,1.795-1.797h3.625c0.988,0,1.795,0.805,1.795,1.797V49.556z
		 M237.863,50.515c0,1.17-0.947,2.118-2.113,2.118h-9.871c-1.166,0-2.115-0.948-2.115-2.118v-4.226c0-1.168,0.949-2.117,2.115-2.117
		h9.871c1.166,0,2.113,0.949,2.113,2.117V50.515z M262.814,65.414c-0.195-0.439-0.447-0.848-0.748-1.214
		c-0.973-1.179-2.443-1.929-4.09-1.929c-1.646,0-3.117,0.75-4.09,1.929c-0.301,0.366-0.553,0.774-0.748,1.214
		c-0.17,0.381-0.297,0.787-0.375,1.211c-0.053,0.305-0.084,0.62-0.084,0.94c0,2.926,2.373,5.296,5.297,5.296
		c2.924,0,5.295-2.37,5.295-5.296c0-0.32-0.029-0.636-0.084-0.94C263.111,66.201,262.984,65.794,262.814,65.414z M257.977,69.539
		c-1.09,0-1.973-0.883-1.973-1.974c0-0.341,0.086-0.661,0.238-0.94c0.334-0.615,0.984-1.033,1.734-1.033
		c0.748,0,1.4,0.418,1.734,1.033c0.152,0.279,0.238,0.6,0.238,0.94C259.949,68.656,259.066,69.539,257.977,69.539z M226.846,65.414
		c-0.197-0.439-0.447-0.848-0.75-1.214c-0.971-1.179-2.441-1.929-4.088-1.929s-3.117,0.75-4.09,1.929
		c-0.301,0.366-0.553,0.774-0.75,1.214c-0.17,0.381-0.295,0.787-0.371,1.211c-0.055,0.305-0.084,0.62-0.084,0.94
		c0,2.926,2.369,5.296,5.295,5.296c2.924,0,5.297-2.37,5.297-5.296c0-0.32-0.031-0.636-0.086-0.94
		C227.143,66.201,227.016,65.794,226.846,65.414z M222.008,69.539c-1.09,0-1.973-0.883-1.973-1.974c0-0.341,0.086-0.661,0.238-0.94
		c0.332-0.615,0.984-1.033,1.734-1.033c0.748,0,1.4,0.418,1.734,1.033c0.152,0.279,0.238,0.6,0.238,0.94
		C223.98,68.656,223.098,69.539,222.008,69.539z"/>
</g>
<g>
	<path fill="#1EC2F3" d="M289.216,21.698l32.568-18.803c4.465-2.578,9.967-2.578,14.432,0l32.568,18.803
		c4.465,2.578,7.216,7.342,7.216,12.498v37.607c0,5.156-2.751,9.92-7.216,12.498l-32.568,18.803c-4.465,2.578-9.967,2.578-14.432,0
		l-32.568-18.803C284.751,81.724,282,76.959,282,71.803V34.197C282,29.041,284.751,24.276,289.216,21.698z"/>
	<g>
		<path fill="#FFFFFF" d="M315.586,50.288c0.024-1.624,0.22-3.397,0.612-5.189c-2.308,1.783-5.906,4.91-8.179,8.57
			c-3.143,5.067-1.955,9.058,0.418,11.025c2.028,1.682,5.567,1.867,10.972,0.564c0,0-0.03,12.223,4.503,14.375
			c2.775,1.317,7.507-2.124,10.767-5c-5.961-4.377-12.389-10.586-15.538-13.897l-0.464,0.216c-0.653,0.305-1.353,0.451-2.031,0.451
			c-1.468,0-2.895-0.672-3.83-1.887c-0.667-0.865-1.006-1.918-1.006-2.95c0-1.096,0.381-2.212,1.121-3.087L315.586,50.288z"/>
		<path fill="#FFFFFF" d="M318.846,38.624c0.259-0.602,0.46-1.205,0.575-1.802c0.09-0.546,0.131-1.086,0.131-1.626
			c0.02-3.89-2.37-7.673-6.69-8.838c-0.694-0.188-1.415-0.282-2.123-0.282c-3.479-0.004-6.906,2.186-8.087,5.877l0,0
			c-0.377,1.177-0.564,2.62-0.568,4.15c0.001,0.179,0.02,0.368,0.025,0.55c0.694,0.604,2.525,1.566,6.539,0.19
			c3.315-1.138,4.756-4.202,5.521-3.036c0.976,1.481,0.153,4.326-2.453,6.902c-2.134,2.108-5.949,3.343-8.005,2.176
			c-0.131-0.072-0.221-0.193-0.336-0.285c0.807,1.756,2.039,3.191,3.897,3.813c0.448,0.135,0.907,0.191,1.364,0.191
			c3.275-0.107,6.926-2.77,9.068-5.942C318.151,39.996,318.55,39.318,318.846,38.624z"/>
		<path fill="#FFFFFF" d="M347.248,35.248c-0.492-0.776-1.454-1.105-2.32-0.797l-4.762,1.716c-2.286-0.998-5.054-1.663-7.906-1.696
			c-2.686,0-5.447,0.631-7.811,2.29c-2.76,1.952-4.362,4.884-5.208,7.934c-0.548,1.977-0.784,4.002-0.791,5.849
			c0.003,0.26,0.031,0.489,0.04,0.74l-3.354,4.031c-0.593,0.705-0.606,1.727-0.048,2.453c0.383,0.498,0.964,0.769,1.559,0.769
			c0.275,0,0.557-0.059,0.821-0.182l2.454-1.133c0.084,0.129,0.147,0.293,0.24,0.408c2.075,2.397,10.027,10.211,16.655,15.02
			c1.823,1.319,3.547,2.426,5.016,3.115c0.134,0.063,0.273,0.094,0.413,0.094c0.119,0,0.234-0.035,0.344-0.078l-5.604-7.857
			c-0.907-1.289-1.355-2.801-1.35-4.273c-0.006-2.339,1.11-4.669,3.183-6.112c1.287-0.903,2.795-1.351,4.271-1.347
			c2.335-0.004,4.665,1.11,6.1,3.162l5.362,7.518c0.114-0.185,0.18-0.402,0.157-0.633c-0.851-7.525-7.199-22.201-9.434-26.199
			c-0.074-0.119-0.19-0.234-0.274-0.354l1.985-2.002C347.634,37.031,347.741,36.021,347.248,35.248z M336.539,54.033
			c-2.483,1.737-6.135,0.798-7.388-0.99c-1.249-1.784,0.439-3.652,2.922-5.389c2.479-1.74,4.813-2.685,6.061-0.9
			C339.387,48.54,339.022,52.297,336.539,54.033z"/>
		<path fill="#FFFFFF" d="M353.364,70.148l-6.51-9.131c-1.455-2.078-4.319-2.579-6.393-1.128c-2.079,1.454-2.58,4.316-1.129,6.392
			l6.635,9.297l1.601,2.246c1.453,2.073,4.317,2.582,6.392,1.128c2.078-1.454,2.58-4.316,1.124-6.394L353.364,70.148z"/>
	</g>
</g>
<g>
	<path fill="#1EC2F3" d="M383.216,21.698l32.568-18.803c4.465-2.578,9.967-2.578,14.432,0l32.568,18.803
		c4.465,2.578,7.216,7.342,7.216,12.498v37.607c0,5.156-2.751,9.92-7.216,12.498l-32.568,18.803c-4.465,2.578-9.967,2.578-14.432,0
		l-32.568-18.803C378.751,81.724,376,76.959,376,71.803V34.197C376,29.041,378.751,24.276,383.216,21.698z"/>
	<g>
		<path fill="#FFFFFF" d="M390.086,58.201v7.32c0,0.425,0.174,0.84,0.477,1.141c0.295,0.303,0.713,0.472,1.139,0.472h8.584
			c0.133-4.356,3.68-7.846,8.07-7.851c4.391,0.005,7.936,3.498,8.07,7.851h15.314c0.127,0.021,0.248,0.075,0.377,0.075h3.801
			c0.096-4.391,3.662-7.921,8.076-7.926c4.42,0.005,7.99,3.535,8.084,7.926h1.559c0.596,0,1.188-0.244,1.613-0.669
			c0.42-0.421,0.664-1.011,0.664-1.608v-7.038c-0.053-1.355-0.658-2.053-1.142-2.648c-1.051-1.162-2.533-2.155-3.484-2.781
			c-0.15-1.998-0.662-4.406-1.746-6.664c-1.258-2.676-3.815-5.438-7.703-5.434h-9.262v-6.176c0-0.426-0.176-0.84-0.477-1.143
			c-0.301-0.298-0.717-0.47-1.147-0.47h-39.252c-0.422,0-0.842,0.17-1.143,0.47c-0.301,0.304-0.473,0.718-0.473,1.143v23.925
			c0,0.015,0.006,0.029,0.006,0.046C390.092,58.175,390.086,58.188,390.086,58.201z M436.799,44.931h5.039
			c1.553,0.006,2.605,0.939,3.604,2.871c0.805,1.619,1.209,3.723,1.297,5.227h-9.94V44.931z M393.314,35.804l36.027,0.004v20.694
			h-36.027V35.804z"/>
		<path fill="#FFFFFF" d="M450.041,67.38c0-0.059-0.016-0.112-0.018-0.172c-0.096-3.256-2.746-5.869-6.025-5.875
			c-3.283,0.006-5.932,2.619-6.025,5.875c0,0.06-0.016,0.113-0.016,0.172c0,3.336,2.705,6.037,6.041,6.043
			C447.336,73.417,450.041,70.716,450.041,67.38z M442.061,67.38c0-0.061,0.031-0.112,0.037-0.172
			c0.094-0.986,0.895-1.765,1.9-1.765c1.006,0,1.807,0.778,1.902,1.765c0.006,0.06,0.035,0.111,0.035,0.172
			c-0.004,1.066-0.869,1.932-1.938,1.932C442.93,69.312,442.066,68.447,442.061,67.38z"/>
		<path fill="#FFFFFF" d="M414.397,67.38c0-0.084-0.022-0.162-0.027-0.247c-0.135-3.22-2.758-5.794-6.016-5.8
			c-3.252,0.006-5.887,2.58-6.016,5.8c-0.006,0.085-0.025,0.163-0.025,0.247c0,3.336,2.705,6.037,6.041,6.043
			C411.691,73.417,414.397,70.716,414.397,67.38z M406.416,67.38c0-0.087,0.041-0.162,0.053-0.247
			c0.131-0.948,0.906-1.689,1.885-1.689c0.978,0,1.758,0.741,1.887,1.689c0.01,0.085,0.051,0.16,0.051,0.247
			c-0.004,1.066-0.873,1.932-1.938,1.932C407.283,69.312,406.42,68.447,406.416,67.38z"/>
	</g>
</g>
<g>
	<path fill="#1EC2F3" d="M571.216,21.698l32.568-18.803c4.465-2.578,9.967-2.578,14.432,0l32.568,18.803
		c4.465,2.578,7.216,7.342,7.216,12.498v37.607c0,5.156-2.751,9.92-7.216,12.498l-32.568,18.803c-4.465,2.578-9.967,2.578-14.432,0
		l-32.568-18.803C566.751,81.724,564,76.959,564,71.803V34.197C564,29.041,566.751,24.276,571.216,21.698z"/>
	<g>
		<path fill="#FFFFFF" d="M634.066,37.495l-5.924,5.885l-6.551-1.417l-1.381-6.556l5.936-5.91c-0.928-0.252-1.887-0.425-2.895-0.428
			c-6.215-0.022-11.264,4.998-11.285,11.213c-0.006,2.063,0.586,3.971,1.551,5.645l-9.561,9.506
			c-1.662-0.975-3.574-1.577-5.639-1.586c-6.213-0.018-11.264,5.004-11.283,11.221c-0.006,0.99,0.162,1.938,0.398,2.854l5.926-5.884
			l6.549,1.415l1.381,6.561l-5.935,5.897c0.928,0.255,1.887,0.438,2.894,0.44c6.213,0.015,11.264-5,11.285-11.215
			c0.006-1.854-0.481-3.584-1.271-5.125l9.799-9.746c1.541,0.801,3.268,1.296,5.123,1.305c6.213,0.019,11.264-5.002,11.281-11.217
			C634.471,39.364,634.303,38.413,634.066,37.495z"/>
		<g>
			<path fill="#FFFFFF" d="M588.076,29.885l0.938-0.924l5.779,3.189l2.982,2.999l2.227,3.735l20.949,21.088
				c0,0,1.686-1.68,2.34-2.334c0.658-0.646,1.213-0.084,1.213-0.084s0.375,0.371,0.934,0.938c0.559,0.563-0.01,2.982-0.01,2.982
				l1.486,1.503c0,0,7.014,7.048,7.619,7.66c0.605,0.606,0.549,2.427-0.008,2.987c-0.563,0.563-1.5,1.489-1.5,1.489
				s-0.936,0.929-1.5,1.491c-0.563,0.557-2.379,0.601-2.99-0.01c-0.602-0.606-7.613-7.663-7.613-7.663l-1.49-1.505
				c0,0-2.424,0.561-2.986-0.004c-0.557-0.563-0.932-0.934-0.932-0.934s-0.557-0.564,0.1-1.217c0.656-0.651,2.338-2.324,2.338-2.324
				l-20.947-21.084l-3.729-2.246l-2.979-3.002l-3.156-5.793L588.076,29.885z"/>
		</g>
	</g>
</g>
<g>
	<path fill="#1EC2F3" d="M477.216,21.698l32.568-18.803c4.465-2.578,9.967-2.578,14.432,0l32.568,18.803
		c4.465,2.578,7.216,7.342,7.216,12.498v37.607c0,5.156-2.751,9.92-7.216,12.498l-32.568,18.803c-4.465,2.578-9.967,2.578-14.432,0
		l-32.568-18.803C472.751,81.724,470,76.959,470,71.803V34.197C470,29.041,472.751,24.276,477.216,21.698z"/>
	<g>
		<g>
			<path fill-rule="evenodd" clip-rule="evenodd" fill="#FFFFFF" d="M517,45.584c-5.579,0-12.976,1.855-12.976,1.855l1.854,14.829
				l5.559,3.706v12.978c0,0,2.765,1.853,5.563,1.853c2.763,0,5.561-1.853,5.561-1.853V65.975l5.562-3.706l1.854-14.829
				C529.976,47.44,522.543,45.584,517,45.584z M517,43.733c5.117,0,9.268-4.15,9.268-9.27s-4.15-9.268-9.268-9.268
				c-5.119,0-9.269,4.148-9.269,9.268S511.881,43.733,517,43.733z"/>
		</g>
	</g>
</g>
<g>
	<path fill="#1EC2F3" d="M7.216,21.698L39.784,2.895c4.465-2.578,9.967-2.578,14.432,0l32.568,18.803
		C91.249,24.276,94,29.041,94,34.197v37.607c0,5.156-2.751,9.92-7.216,12.498l-32.568,18.803c-4.465,2.578-9.967,2.578-14.432,0
		L7.216,84.302C2.751,81.724,0,76.959,0,71.803l0-37.607C0,29.041,2.751,24.276,7.216,21.698z"/>
	<g>
		<path fill="#FFFFFF" d="M63.866,45.995c-3.915-3.076-9.397-6.224-15.754-7.179c-6.355-0.952-12.959-0.372-19.864,1.181
			c-5.511,1.24-13.472,3.793-16.984,7.306c-4.449,4.449-4.292,16.436,1.552,16.436h2.771c-0.374-0.992-0.58-2.065-0.58-3.19
			c0-4.985,4.042-9.026,9.028-9.026c4.987,0,9.029,4.041,9.029,9.026c0,1.124-0.207,2.197-0.581,3.19h27.48
			c-0.375-0.992-0.581-2.065-0.581-3.19c0-4.985,4.043-9.026,9.028-9.026c4.986,0,9.029,4.041,9.029,9.026
			c0,1.124-0.207,2.197-0.582,3.19c3.814,0,6.146,0,6.146,0s2.521-2.292,2.826-4.638C86.144,56.717,82.046,48.046,63.866,45.995z
			 M39.419,49.18c-2.825,0-5.689-0.234-7.84-0.808c-2.157-0.575-3.563-1.488-3.555-2.787c0-0.757,0.469-1.684,1.582-2.794
			c4.416-0.952,8.387-1.417,12.115-1.417c2.043,0,4.043,0.145,5.943,0.429c4.688,0.703,8.763,2.73,11.836,4.764
			C55.625,47.211,45.218,49.182,39.419,49.18z"/>
		<path fill="#FFFFFF" d="M24.035,53.452c-3.921,0-7.097,3.178-7.097,7.097c0,1.149,0.274,2.232,0.756,3.19
			c1.168,2.317,3.568,3.909,6.341,3.909c2.772,0,5.173-1.592,6.341-3.909c0.483-0.958,0.758-2.041,0.758-3.19
			C31.134,56.629,27.956,53.452,24.035,53.452z M24.035,63.489c-1.623,0-2.937-1.316-2.937-2.941c0-1.622,1.313-2.936,2.937-2.936
			c1.623,0,2.94,1.314,2.94,2.936C26.976,62.172,25.658,63.489,24.035,63.489z"/>
		<path fill="#FFFFFF" d="M68.412,53.452c-3.919,0-7.097,3.178-7.097,7.097c0,1.149,0.271,2.232,0.756,3.19
			c1.168,2.317,3.566,3.909,6.341,3.909c2.771,0,5.173-1.592,6.341-3.909c0.482-0.958,0.757-2.041,0.757-3.19
			C75.51,56.629,72.331,53.452,68.412,53.452z M68.412,63.489c-1.623,0-2.938-1.316-2.938-2.941c0-1.622,1.315-2.936,2.938-2.936
			c1.622,0,2.937,1.314,2.937,2.936C71.349,62.172,70.034,63.489,68.412,63.489z"/>
	</g>
</g>
</svg>
