<?xml version="1.0" encoding="utf-8"?>
<!-- Generator: Adobe Illustrator 17.1.0, SVG Export Plug-In . SVG Version: 6.00 Build 0)  -->
<!DOCTYPE svg PUBLIC "-//W3C//DTD SVG 1.1//EN" "http://www.w3.org/Graphics/SVG/1.1/DTD/svg11.dtd">
<svg version="1.1" id="Layer_1" xmlns="http://www.w3.org/2000/svg" xmlns:xlink="http://www.w3.org/1999/xlink" x="0px" y="0px"
	 viewBox="0 0 500 400" enable-background="new 0 0 500 400" xml:space="preserve">
<g>
	<g>
		<path fill="#3A3A3A" d="M106.8,94.3c-0.3,0-0.6-0.1-0.8-0.3c-0.3-0.3-0.4-0.9-0.2-1.3L116.1,72c-8.8-7.3-13.6-17-13.6-27.3
			c0-21.5,21.3-39,47.5-39c26.2,0,47.5,17.5,47.5,39c0,21.5-21.3,39-47.5,39c-5.5,0-11-0.8-16.1-2.3l-26.5,12.9
			C107.2,94.3,107,94.3,106.8,94.3z M150,8c-24.9,0-45.2,16.5-45.2,36.7c0,9.9,4.8,19.2,13.5,26.1c0.4,0.3,0.5,0.9,0.3,1.4
			l-9.2,18.5l23.9-11.6c0.3-0.1,0.6-0.1,0.8-0.1c5.1,1.5,10.4,2.3,15.9,2.3c24.9,0,45.2-16.5,45.2-36.7C195.2,24.4,174.9,8,150,8z"
			/>
	</g>
	<g>
		<path fill="#3A3A3A" d="M152,68.4c-0.2,0-0.5-0.1-0.7-0.2c-0.9-0.7-22.6-16.6-22.6-29c0-8.4,6.2-13.4,12.1-13.4
			c3.9,0,8.6,2.3,11.2,8.3c2.6-6.1,7.3-8.3,11.2-8.3c6,0,12.1,5,12.1,13.4c0,12.4-21.7,28.3-22.6,29C152.5,68.4,152.2,68.4,152,68.4
			z M140.8,28.1c-4.8,0-9.8,4.2-9.8,11.1c0,10.1,17.4,23.9,21,26.7c3.7-2.8,21-16.6,21-26.7c0-7-5-11.1-9.8-11.1
			c-4.8,0-8.6,3.7-10.1,10c-0.1,0.5-0.6,0.9-1.1,0.9s-1-0.4-1.1-0.9C149.4,31.9,145.6,28.1,140.8,28.1z"/>
	</g>
</g>
<g>
	<g>
		<path fill="#3A3A3A" d="M250,97.5c-26.2,0-47.5-21.3-47.5-47.5S223.8,2.5,250,2.5c26.2,0,47.5,21.3,47.5,47.5S276.2,97.5,250,97.5
			z M250,4.8c-24.9,0-45.2,20.3-45.2,45.2s20.3,45.2,45.2,45.2s45.2-20.3,45.2-45.2S274.9,4.8,250,4.8z"/>
	</g>
	<g>
		<path fill="#3A3A3A" d="M255,46.2c-0.3,0-0.6-0.1-0.8-0.3c-0.5-0.5-0.5-1.2,0-1.7L272.3,26c0.5-0.5,1.2-0.5,1.7,0
			c0.5,0.5,0.5,1.2,0,1.7l-18.2,18.2C255.6,46.1,255.3,46.2,255,46.2z"/>
	</g>
	<g>
		<path fill="#3A3A3A" d="M220.2,51.2h-6.6c-0.6,0-1.2-0.5-1.2-1.2c0-0.6,0.5-1.2,1.2-1.2h6.6c0.6,0,1.2,0.5,1.2,1.2
			C221.4,50.6,220.9,51.2,220.2,51.2z"/>
	</g>
	<g>
		<path fill="#3A3A3A" d="M222.5,39.8c-0.2,0-0.3,0-0.4-0.1l-6.1-2.5c-0.6-0.2-0.9-0.9-0.6-1.5c0.2-0.6,0.9-0.9,1.5-0.6l6.1,2.5
			c0.6,0.2,0.9,0.9,0.6,1.5C223.4,39.5,222.9,39.8,222.5,39.8z"/>
	</g>
	<g>
		<path fill="#3A3A3A" d="M228.9,30.1c-0.3,0-0.6-0.1-0.8-0.3l-4.7-4.7c-0.5-0.5-0.5-1.2,0-1.7c0.5-0.5,1.2-0.5,1.7,0l4.7,4.7
			c0.5,0.5,0.5,1.2,0,1.7C229.5,30,229.2,30.1,228.9,30.1z"/>
	</g>
	<g>
		<path fill="#3A3A3A" d="M238.6,23.7c-0.5,0-0.9-0.3-1.1-0.7l-2.5-6.1c-0.2-0.6,0-1.3,0.6-1.5c0.6-0.2,1.3,0,1.5,0.6l2.5,6.1
			c0.2,0.6,0,1.3-0.6,1.5C238.9,23.6,238.8,23.7,238.6,23.7z"/>
	</g>
	<g>
		<path fill="#3A3A3A" d="M250,21.4C250,21.4,250,21.4,250,21.4c-0.6,0-1.2-0.5-1.2-1.2l0-6.6c0-0.6,0.5-1.2,1.2-1.2c0,0,0,0,0,0
			c0.6,0,1.2,0.5,1.2,1.2l0,6.6C251.2,20.9,250.6,21.4,250,21.4z"/>
	</g>
	<g>
		<path fill="#3A3A3A" d="M261.4,23.7c-0.2,0-0.3,0-0.4-0.1c-0.6-0.2-0.9-0.9-0.6-1.5l2.5-6.1c0.2-0.6,0.9-0.9,1.5-0.6
			c0.6,0.2,0.9,0.9,0.6,1.5l-2.5,6.1C262.3,23.4,261.9,23.7,261.4,23.7z"/>
	</g>
	<g>
		<path fill="#3A3A3A" d="M277.5,39.8c-0.5,0-0.9-0.3-1.1-0.7c-0.2-0.6,0-1.3,0.6-1.5l6.1-2.5c0.6-0.2,1.3,0,1.5,0.6
			c0.2,0.6,0,1.3-0.6,1.5l-6.1,2.5C277.8,39.7,277.7,39.8,277.5,39.8z"/>
	</g>
	<g>
		<path fill="#3A3A3A" d="M286.4,51.2C286.4,51.2,286.4,51.2,286.4,51.2l-6.6,0c-0.6,0-1.2-0.5-1.2-1.2c0-0.6,0.5-1.2,1.2-1.2
			c0,0,0,0,0,0l6.6,0c0.6,0,1.2,0.5,1.2,1.2S287,51.2,286.4,51.2z"/>
	</g>
	<g>
		<path fill="#3A3A3A" d="M283.6,65.1c-0.2,0-0.3,0-0.5-0.1l-6.1-2.5c-0.6-0.2-0.9-0.9-0.6-1.5c0.2-0.6,0.9-0.9,1.5-0.6l6.1,2.5
			c0.6,0.2,0.9,0.9,0.6,1.5C284.5,64.8,284.1,65.1,283.6,65.1z"/>
	</g>
	<g>
		<path fill="#3A3A3A" d="M216.4,65.1c-0.5,0-0.9-0.3-1.1-0.7c-0.2-0.6,0-1.3,0.6-1.5l6.1-2.5c0.6-0.2,1.3,0,1.5,0.6
			c0.2,0.6,0,1.3-0.6,1.5l-6.1,2.5C216.7,65.1,216.5,65.1,216.4,65.1z"/>
	</g>
	<g>
		<path fill="#3A3A3A" d="M266.5,81h-33.1c-0.6,0-1.2-0.5-1.2-1.2v-9.9c0-0.6,0.5-1.2,1.2-1.2h33.1c0.6,0,1.2,0.5,1.2,1.2v9.9
			C267.7,80.4,267.2,81,266.5,81z M234.6,78.6h30.7V71h-30.7V78.6z"/>
	</g>
	<g>
		<path fill="#3A3A3A" d="M250,57.8c-4.3,0-7.8-3.5-7.8-7.8c0-4.3,3.5-7.8,7.8-7.8c4.3,0,7.8,3.5,7.8,7.8
			C257.8,54.3,254.3,57.8,250,57.8z M250,44.6c-3,0-5.4,2.4-5.4,5.4c0,3,2.4,5.4,5.4,5.4s5.4-2.4,5.4-5.4
			C255.4,47,253,44.6,250,44.6z"/>
	</g>
</g>
<g>
	<g>
		<path fill="#3A3A3A" d="M342,89.6c-0.6,0-1.1-0.5-1.1-1.1v-8.2c0-0.6,0.5-1.1,1.1-1.1c0.6,0,1.1,0.5,1.1,1.1v8.2
			C343.1,89.1,342.6,89.6,342,89.6z"/>
	</g>
	<g>
		<path fill="#3A3A3A" d="M348.4,89.6c-0.6,0-1.1-0.5-1.1-1.1v-8.3c0-0.6,0.5-1.1,1.1-1.1s1.1,0.5,1.1,1.1v8.3
			C349.5,89.1,349,89.6,348.4,89.6z"/>
	</g>
	<g>
		<path fill="#3A3A3A" d="M369.2,97.5h-48c-0.5,0-0.9-0.3-1.1-0.8c-0.2-0.5,0-1,0.4-1.3c7.2-5.4,15.7-8.2,24.7-8.2
			c9,0,17.5,2.8,24.7,8.2c0.4,0.3,0.5,0.8,0.4,1.3C370.1,97.2,369.7,97.5,369.2,97.5z M324.9,95.2h40.6c-6.1-3.8-13-5.7-20.3-5.7
			C337.9,89.5,331,91.5,324.9,95.2z"/>
	</g>
	<g>
		<path fill="#3A3A3A" d="M345.2,68.7c-17.4,0-31.5-14.1-31.5-31.5s14.1-31.5,31.5-31.5s31.5,14.1,31.5,31.5S362.6,68.7,345.2,68.7z
			 M345.2,8C329.1,8,316,21.1,316,37.2s13.1,29.2,29.2,29.2s29.2-13.1,29.2-29.2S361.3,8,345.2,8z"/>
	</g>
	<g>
		<path fill="#3A3A3A" d="M345.2,81.5c-11.3,0-22.7-4.3-31.3-13c-0.4-0.4-0.4-1.2,0-1.6c0.4-0.4,1.2-0.4,1.6,0
			c16.4,16.4,43.1,16.4,59.4,0c16.4-16.4,16.4-43.1,0-59.4c-0.4-0.4-0.4-1.2,0-1.6c0.4-0.4,1.2-0.4,1.6,0
			c17.3,17.3,17.3,45.4,0,62.7C367.9,77.2,356.6,81.5,345.2,81.5z"/>
	</g>
	<g>
		<path fill="#3A3A3A" d="M311.6,71.9c-0.3,0-0.6-0.1-0.8-0.3c-0.4-0.4-0.4-1.2,0-1.6l6.4-6.4c0.4-0.4,1.2-0.4,1.6,0
			c0.4,0.4,0.4,1.2,0,1.6l-6.4,6.4C312.2,71.8,311.9,71.9,311.6,71.9z"/>
	</g>
	<g>
		<path fill="#3A3A3A" d="M372.4,11.2c-0.3,0-0.6-0.1-0.8-0.3c-0.4-0.4-0.4-1.2,0-1.6l6.4-6.4c0.4-0.4,1.2-0.4,1.6,0
			c0.4,0.4,0.4,1.2,0,1.6l-6.4,6.4C373,11.1,372.7,11.2,372.4,11.2z"/>
	</g>
</g>
<g>
	<g>
		<path fill="#3A3A3A" d="M450,97.5c-26.2,0-47.5-21.3-47.5-47.5S423.8,2.5,450,2.5c26.2,0,47.5,21.3,47.5,47.5S476.2,97.5,450,97.5
			z M450,4.8c-24.9,0-45.2,20.3-45.2,45.2c0,24.9,20.3,45.2,45.2,45.2c24.9,0,45.2-20.3,45.2-45.2C495.2,25.1,474.9,4.8,450,4.8z"/>
	</g>
	<g>
		<path fill="#3A3A3A" d="M450,85.4c-17.1,0-31.5-14.7-31.5-32.2c0-0.6,0.5-1.1,1.1-1.1c0.6,0,1.1,0.5,1.1,1.1
			c0,16.2,13.4,29.9,29.2,29.9c15.9,0,29.2-13.7,29.2-29.9c0-0.6,0.5-1.1,1.1-1.1c0.6,0,1.1,0.5,1.1,1.1
			C481.5,70.7,467.1,85.4,450,85.4z"/>
	</g>
	<g>
		<path fill="#3A3A3A" d="M440.4,43.1c-0.6,0-1.1-0.5-1.1-1.1c0-3.7-3.5-7-7.4-7c-3.7,0-7.9,3.1-7.9,7c0,0.6-0.5,1.1-1.1,1.1
			c-0.6,0-1.1-0.5-1.1-1.1c0-5.3,5.4-9.3,10.2-9.3c5.2,0,9.7,4.3,9.7,9.3C441.5,42.6,441,43.1,440.4,43.1z"/>
	</g>
	<g>
		<path fill="#3A3A3A" d="M477.2,43.1c-0.6,0-1.1-0.5-1.1-1.1c0-3.9-4.2-7-7.9-7c-4,0-7.4,3.3-7.4,7c0,0.6-0.5,1.1-1.1,1.1
			c-0.6,0-1.1-0.5-1.1-1.1c0-4.9,4.5-9.3,9.7-9.3c4.8,0,10.2,4,10.2,9.3C478.3,42.6,477.8,43.1,477.2,43.1z"/>
	</g>
</g>
<g>
	<g>
		<path fill="#3A3A3A" d="M50,165.5c-1.5,0-2.7-1.2-2.7-2.7c0-1.5,1.2-2.7,2.7-2.7c1.5,0,2.7,1.2,2.7,2.7
			C52.7,164.3,51.5,165.5,50,165.5z M50,162.3c-0.3,0-0.5,0.2-0.5,0.5c0,0.3,0.2,0.5,0.5,0.5c0.3,0,0.5-0.2,0.5-0.5
			C50.5,162.5,50.3,162.3,50,162.3z"/>
	</g>
	<g>
		<path fill="#3A3A3A" d="M50,177.6c-0.6,0-1.1-0.5-1.1-1.1v-12.1c0-0.6,0.5-1.1,1.1-1.1c0.6,0,1.1,0.5,1.1,1.1v12.1
			C51.1,177.1,50.6,177.6,50,177.6z"/>
	</g>
	<g>
		<path fill="#3A3A3A" d="M83.1,197.5H16.9v-56.6h66.2V197.5z M19.2,195.2h61.7v-52.1H19.2V195.2z"/>
	</g>
	<g>
		<path fill="#3A3A3A" d="M73.5,142h-2.3v-14.4c0-11-8.5-22.8-21.3-22.8c-12.7,0-21.2,11.8-21.2,22.8V142h-2.3v-14.4
			c0-12.1,9.5-25.1,23.5-25.1c14.1,0,23.5,13,23.5,25.1V142z"/>
	</g>
</g>
<g>
	<g>
		<path fill="#3A3A3A" d="M165.5,197.5h-63V190c0-4.4,2.7-8.1,7-9.7l15.3-5.5v-7.7h2.3v9.2l-16.9,6.1c-3.5,1.2-5.5,4.1-5.5,7.5v5.3
			h58.5V190c0-3.4-2.2-6.3-5.8-7.5l-16.6-6.1v-10.1h2.3v8.5l15.1,5.5c4.4,1.6,7.3,5.4,7.3,9.7V197.5z"/>
	</g>
	<g>
		<path fill="#3A3A3A" d="M133.5,170.4c-9.4,0-17-9.1-17-20.2c0-11.2,7.6-20.2,17-20.2c9.4,0,17,9.1,17,20.2
			C150.5,161.4,142.9,170.4,133.5,170.4z M133.5,132.2c-8.2,0-14.8,8.1-14.8,18c0,9.9,6.6,18,14.8,18c8.2,0,14.8-8.1,14.8-18
			C148.3,140.3,141.6,132.2,133.5,132.2z"/>
	</g>
	<g>
		<path fill="#3A3A3A" d="M145.2,150c-3.8,0-6.8-1.8-9.3-5.5c-2.5,3-7.5,5.2-11.9,5.2c-2.5,0-4.6-0.5-6.7-1.6l1.1-2
			c1.8,0.9,3.6,1.4,5.6,1.4c4.3,0,9.4-2.6,11-5.5l1-1.8l1,1.8c2.8,4.9,5.9,6.5,10.7,5.6c0.4-0.1,0.7-0.1,1-0.1c0.2,0,0.4,0,0.6,0
			l0.3,2.3c-0.2,0-0.5,0-0.7,0.1c-0.2,0-0.5,0-0.7,0.1C147,149.9,146.1,150,145.2,150z"/>
	</g>
	<g>
		<polygon fill="#3A3A3A" points="166.5,157.8 166.5,139.9 159.6,139.9 159.6,137.7 168.8,137.7 168.8,151.8 181.5,137.7 
			195.2,137.7 195.2,104.8 136.7,104.8 136.7,119.6 134.5,119.6 134.5,102.5 197.5,102.5 197.5,139.9 182.5,139.9 		"/>
	</g>
	<g>
		<path fill="#3A3A3A" d="M160.2,125h-4.3v-4.3h4.3V125z M157,123.9h2.1v-2.1H157V123.9z"/>
	</g>
	<g>
		<path fill="#3A3A3A" d="M169.8,125h-4.3v-4.3h4.3V125z M166.6,123.9h2.1v-2.1h-2.1V123.9z"/>
	</g>
	<g>
		<path fill="#3A3A3A" d="M179.3,125H175v-4.3h4.3V125z M176.1,123.9h2.1v-2.1h-2.1V123.9z"/>
	</g>
</g>
<g>
	<g>
		<path fill="#3A3A3A" d="M294.8,159.1c-0.6,0-1.1-0.5-1.1-1.1c0-6.2-5.4-8.5-10.1-8.5c-5.8,0-10.1,4.5-10.1,8.5
			c0,0.6-0.5,1.1-1.1,1.1c-0.6,0-1.1-0.5-1.1-1.1c0-4-4.3-8.5-10.1-8.5s-10.1,4.5-10.1,8.5c0,0.6-0.5,1.1-1.1,1.1
			c-0.6,0-1.1-0.5-1.1-1.1c0-4-4.3-8.5-10.1-8.5c-5.8,0-10.1,4.5-10.1,8.5c0,0.6-0.5,1.1-1.1,1.1c-0.6,0-1.1-0.5-1.1-1.1
			c0-4-4.3-8.5-10.1-8.5c-4.6,0-10.1,2.2-10.1,8.5c0,0.6-0.5,1.1-1.1,1.1c-0.6,0-1.1-0.5-1.1-1.1c0-25.3,20.6-45.9,45.9-45.9
			c25.3,0,45.9,20.6,45.9,45.9C295.9,158.6,295.4,159.1,294.8,159.1z M261.2,147.3c4.8,0,9.2,2.7,11.2,6.4c2-3.7,6.4-6.4,11.2-6.4
			c4,0,7.3,1.3,9.5,3.4c-3.5-20.6-21.4-36.4-43-36.4c-21.6,0-39.6,15.7-43,36.4c2.2-2.2,5.5-3.4,9.5-3.4c4.8,0,9.2,2.7,11.2,6.4
			c2-3.7,6.4-6.4,11.2-6.4s9.2,2.7,11.2,6.4C252,150,256.4,147.3,261.2,147.3z"/>
	</g>
	<g>
		<path fill="#3A3A3A" d="M256.4,197.5c-4.2,0-7.5-3.4-7.5-7.5v-32c0-0.6,0.5-1.1,1.1-1.1c0.6,0,1.1,0.5,1.1,1.1v32
			c0,2.9,2.4,5.3,5.3,5.3c2.9,0,5.3-2.4,5.3-5.3c0-0.6,0.5-1.1,1.1-1.1c0.6,0,1.1,0.5,1.1,1.1C263.9,194.1,260.5,197.5,256.4,197.5z
			"/>
	</g>
	<g>
		<path fill="#3A3A3A" d="M250,114.4c-0.6,0-1.1-0.5-1.1-1.1v-9.6c0-0.6,0.5-1.1,1.1-1.1c0.6,0,1.1,0.5,1.1,1.1v9.6
			C251.1,113.9,250.6,114.4,250,114.4z"/>
	</g>
</g>
<g>
	<g>
		<path fill="#3A3A3A" d="M350,186.3c-20,0-36.3-16.3-36.3-36.3c0-20,16.3-36.3,36.3-36.3c20,0,36.3,16.3,36.3,36.3
			C386.3,170,370,186.3,350,186.3z M350,116c-18.8,0-34,15.3-34,34c0,18.8,15.3,34,34,34c18.8,0,34-15.3,34-34
			C384,131.2,368.8,116,350,116z"/>
	</g>
	<g>
		<path fill="#3A3A3A" d="M362.5,152.7h-15.2v-22.5c0-0.6,0.5-1.1,1.1-1.1c0.6,0,1.1,0.5,1.1,1.1v20.2h13c0.6,0,1.1,0.5,1.1,1.1
			S363.1,152.7,362.5,152.7z"/>
	</g>
	<g>
		<path fill="#3A3A3A" d="M388.4,197.5h-76.7c-5,0-9.1-4.1-9.1-9.1v-76.7c0-5,4.1-9.1,9.1-9.1h76.7c5,0,9.1,4.1,9.1,9.1v76.7
			C397.5,193.4,393.4,197.5,388.4,197.5z M311.6,104.8c-3.8,0-6.9,3.1-6.9,6.9v76.7c0,3.8,3.1,6.9,6.9,6.9h76.7
			c3.8,0,6.9-3.1,6.9-6.9v-76.7c0-3.8-3.1-6.9-6.9-6.9H311.6z"/>
	</g>
</g>
<g>
	<g>
		<path fill="#3A3A3A" d="M426,197.5c-0.6,0-1.1-0.5-1.1-1.1v-3.2c0-0.6,0.5-1.1,1.1-1.1c0.6,0,1.1,0.5,1.1,1.1v3.2
			C427.2,197,426.6,197.5,426,197.5z"/>
	</g>
	<g>
		<path fill="#3A3A3A" d="M474,197.5c-0.6,0-1.1-0.5-1.1-1.1v-3.2c0-0.6,0.5-1.1,1.1-1.1c0.6,0,1.1,0.5,1.1,1.1v3.2
			C475.1,197,474.6,197.5,474,197.5z"/>
	</g>
	<g>
		<path fill="#3A3A3A" d="M475.6,194.3h-51.2c-7.5,0-12.3-5.5-12.3-13.9v-8c0-2-1.4-2.7-3.5-3.5l-0.6-0.2c-3.2-1.3-5.5-5.1-5.5-9
			c0-3.7,3.6-9.1,9.1-9.1c8.4,0,15.5,7.1,15.5,15.5v4.5c2.9-1.3,9.8-3.5,22.8-3.5s19.9,2.2,22.8,3.5V166c0-8.4,7.1-15.5,15.5-15.5
			c5.6,0,9.1,5.4,9.1,9.1c0,4-2.3,7.7-5.5,9l-0.6,0.2c-2.1,0.8-3.5,1.5-3.5,3.5v8C487.9,188.8,483.1,194.3,475.6,194.3z
			 M411.6,152.7c-4,0-6.9,4.1-6.9,6.9c0,3,1.7,6,4.1,6.9l0.6,0.2c1.8,0.7,4.9,2,4.9,5.6v8c0,7.2,3.9,11.7,10.1,11.7h51.2
			c6.2,0,10.1-4.5,10.1-11.7v-8c0-3.7,3.1-4.9,4.9-5.6l0.5-0.2c2.4-1,4.1-3.9,4.1-6.9c0-2.8-2.9-6.9-6.9-6.9
			c-7.2,0-13.3,6.1-13.3,13.3v8.6l-1.8-1.3c-0.1,0-5.9-4-23.3-4c-17.4,0-23.3,4-23.3,4l-1.8,1.3l0-8.6
			C424.9,158.8,418.8,152.7,411.6,152.7z"/>
	</g>
	<g>
		<path fill="#3A3A3A" d="M421.8,157c-0.6,0-1-0.4-1.1-1l-3.7-25.1c-1.1-7.2,0.8-14.2,5.5-19.7c4.8-5.6,11.9-8.8,19.6-8.8h16
			c7.6,0,14.8,3.2,19.6,8.8c4.7,5.5,6.6,12.4,5.5,19.7l-3.7,25.1c-0.1,0.6-0.7,1-1.3,1c-0.6-0.1-1-0.7-1-1.3l3.7-25.1
			c1-6.6-0.8-12.9-5-17.9c-4.4-5.1-10.9-8-17.8-8h-16c-7,0-13.5,2.9-17.9,8c-4.2,4.9-6,11.3-5,17.9l3.7,25.1c0.1,0.6-0.3,1.2-1,1.3
			C421.9,157,421.8,157,421.8,157z"/>
	</g>
	<g>
		<path fill="#3A3A3A" d="M450,144.7c-4.2,0-7.5-3.4-7.5-7.5c0-4.2,3.4-7.5,7.5-7.5c4.2,0,7.5,3.4,7.5,7.5
			C457.5,141.4,454.2,144.7,450,144.7z M450,131.9c-2.9,0-5.3,2.4-5.3,5.3c0,2.9,2.4,5.3,5.3,5.3s5.3-2.4,5.3-5.3
			C455.3,134.3,452.9,131.9,450,131.9z"/>
	</g>
	<g>
		<path fill="#3A3A3A" d="M461.2,143.1c-0.3,0-0.6-0.1-0.8-0.3l-4.8-4.8c-0.4-0.4-0.4-1.2,0-1.6l4.8-4.8c0.4-0.4,1.2-0.4,1.6,0
			c0.4,0.4,0.4,1.2,0,1.6l-4,4l4,4c0.4,0.4,0.4,1.2,0,1.6C461.8,143,461.5,143.1,461.2,143.1z"/>
	</g>
	<g>
		<path fill="#3A3A3A" d="M438.8,143.1c-0.3,0-0.6-0.1-0.8-0.3c-0.4-0.4-0.4-1.2,0-1.6l4-4l-4-4c-0.4-0.4-0.4-1.2,0-1.6
			c0.4-0.4,1.2-0.4,1.6,0l4.8,4.8c0.2,0.2,0.3,0.5,0.3,0.8s-0.1,0.6-0.3,0.8l-4.8,4.8C439.4,143,439.1,143.1,438.8,143.1z"/>
	</g>
</g>
<g>
	<g>
		<path fill="#3A3A3A" d="M90,281.5H10c-4,0-7.5-3.5-7.5-7.5v-48c0-3.9,3.6-7.5,7.5-7.5H90c3.9,0,7.5,3.6,7.5,7.5v48
			C97.5,278,94,281.5,90,281.5z M10,220.8c-2.7,0-5.3,2.6-5.3,5.3v48c0,2.7,2.5,5.2,5.3,5.2H90c2.8,0,5.3-2.5,5.3-5.2v-48
			c0-2.7-2.6-5.3-5.3-5.3H10z"/>
	</g>
	<g>
		<path fill="#3A3A3A" d="M50,259.1c-0.2,0-0.4-0.1-0.6-0.2l-33.6-22.4c-0.5-0.3-0.7-1.1-0.3-1.6c0.3-0.5,1-0.7,1.6-0.3l32.9,22
			l32.9-22c0.5-0.3,1.2-0.2,1.6,0.3c0.3,0.5,0.2,1.2-0.3,1.6l-33.6,22.4C50.4,259.1,50.2,259.1,50,259.1z"/>
	</g>
	<g>
		<path fill="#3A3A3A" d="M16.4,267.1c-0.4,0-0.7-0.2-0.9-0.5c-0.3-0.5-0.2-1.2,0.3-1.6l14.4-9.6c0.5-0.3,1.2-0.2,1.6,0.3
			c0.3,0.5,0.2,1.2-0.3,1.6l-14.4,9.6C16.9,267.1,16.6,267.1,16.4,267.1z"/>
	</g>
	<g>
		<path fill="#3A3A3A" d="M83.6,267.1c-0.2,0-0.4-0.1-0.6-0.2l-14.4-9.6c-0.5-0.3-0.7-1.1-0.3-1.6c0.3-0.5,1-0.7,1.6-0.3l14.4,9.6
			c0.5,0.3,0.7,1.1,0.3,1.6C84.3,266.9,83.9,267.1,83.6,267.1z"/>
	</g>
</g>
<g>
	<g>
		<path fill="#3A3A3A" d="M190,294.3H110c-4.2,0-7.5-3.4-7.5-7.5v-3.2c0-0.6,0.5-1.1,1.1-1.1h92.7c0.6,0,1.1,0.5,1.1,1.1v3.2
			C197.5,290.9,194.1,294.3,190,294.3z M104.8,284.7v2.1c0,2.9,2.4,5.3,5.3,5.3H190c2.9,0,5.3-2.4,5.3-5.3v-2.1H104.8z"/>
	</g>
	<g>
		<path fill="#3A3A3A" d="M196.4,284.7h-92.7c-0.4,0-0.7-0.2-0.9-0.5c-0.2-0.3-0.3-0.7-0.1-1l9.6-25.6c0.2-0.4,0.6-0.7,1.1-0.7h73.5
			c0.5,0,0.9,0.3,1.1,0.7l9.6,25.6c0.1,0.3,0.1,0.7-0.1,1C197.1,284.5,196.7,284.7,196.4,284.7z M105.3,282.4h89.5l-8.7-23.3h-72
			L105.3,282.4z"/>
	</g>
	<g>
		<path fill="#3A3A3A" d="M186.8,259.1h-73.5c-0.6,0-1.1-0.5-1.1-1.1v-44.8c0-4.2,3.4-7.5,7.5-7.5h60.8c4.2,0,7.5,3.4,7.5,7.5V258
			C187.9,258.6,187.4,259.1,186.8,259.1z M114.4,256.9h71.3v-43.6c0-2.9-2.4-5.3-5.3-5.3h-60.8c-2.9,0-5.3,2.4-5.3,5.3V256.9z"/>
	</g>
	<g>
		<path fill="#3A3A3A" d="M181.5,252.7h-63v-40.6h63V252.7z M120.8,250.5h58.5v-36.1h-58.5V250.5z"/>
	</g>
	<g>
		<path fill="#3A3A3A" d="M167.6,278.3h-35.1l4-11.9h27.2L167.6,278.3z M135.6,276h28.8l-2.4-7.3H138L135.6,276z"/>
	</g>
</g>
<g>
	<g>
		<g>
			<path fill="#3A3A3A" d="M303.8,297.5c-0.3,0-0.6-0.1-0.9-0.4c-0.5-0.5-0.5-1.3,0-1.8l57.5-57.5c0.5-0.5,1.3-0.5,1.8,0
				c0.5,0.5,0.5,1.3,0,1.8l-57.5,57.5C304.4,297.4,304.1,297.5,303.8,297.5z"/>
		</g>
		<g>
			<path fill="#3A3A3A" d="M369.6,258.4c-0.1,0-0.1,0-0.2,0c-0.6-0.1-1-0.5-1.1-1.1l-3.4-22.2l-22.2-3.4c-0.6-0.1-1-0.5-1.1-1.1
				c-0.1-0.6,0.2-1.1,0.8-1.3l20.4-8.5l-3.4-16.8c-0.1-0.5,0.2-1.1,0.6-1.4c0.5-0.3,1.1-0.2,1.5,0.2l11.8,11.8l18.8-8.5
				c0.5-0.2,1-0.1,1.4,0.3c0.4,0.4,0.5,0.9,0.3,1.4l-8.5,18.8l11.7,11.7c0.3,0.2,0.5,0.6,0.5,1c0,0.7-0.6,1.3-1.3,1.3c0,0,0,0,0,0
				c0,0-0.1,0-0.1,0l-16.9-1.7l-8.5,18.7C370.5,258.1,370,258.4,369.6,258.4z M347.5,229.9l18.7,2.9c0.5,0.1,1,0.5,1.1,1.1l2.9,18.9
				l7.1-15.7c0.2-0.5,0.7-0.8,1.3-0.7l14.3,1.4l-9.9-9.9c-0.4-0.4-0.5-0.9-0.3-1.4l7.5-16.5l-16.5,7.5c-0.5,0.2-1,0.1-1.4-0.3
				l-9.5-9.5l2.7,13.7c0.1,0.6-0.2,1.2-0.8,1.4L347.5,229.9z"/>
		</g>
	</g>
	<g>
		<path fill="#3A3A3A" d="M361.3,240c-0.3,0-0.6-0.1-0.9-0.4c-0.5-0.5-0.5-1.3,0-1.8l4.7-4.7c0.5-0.5,1.3-0.5,1.8,0
			c0.5,0.5,0.5,1.3,0,1.8l-4.7,4.7C361.9,239.8,361.6,240,361.3,240z"/>
	</g>
</g>
<g>
	<g>
		<path fill="#3A3A3A" d="M450,297.5c-0.4,0-0.7-0.2-0.9-0.5c-1.3-1.8-32.2-43.6-32.2-61.4c0-18.3,14.9-33.1,33.1-33.1
			s33.1,14.9,33.1,33.1c0,17.8-30.9,59.7-32.2,61.4C450.7,297.3,450.4,297.5,450,297.5z M450,204.8c-17,0-30.8,13.8-30.8,30.8
			c0,15.4,25.6,51.6,30.8,58.8c5.2-7.2,30.8-43.4,30.8-58.8C480.8,218.6,467,204.8,450,204.8z"/>
	</g>
	<g>
		<path fill="#3A3A3A" d="M450,249.5c-7.7,0-13.9-6.2-13.9-13.9s6.2-13.9,13.9-13.9c7.7,0,13.9,6.2,13.9,13.9S457.7,249.5,450,249.5
			z M450,224c-6.4,0-11.7,5.2-11.7,11.7c0,6.4,5.2,11.7,11.7,11.7c6.4,0,11.7-5.2,11.7-11.7C461.7,229.2,456.4,224,450,224z"/>
	</g>
</g>
<g>
	<g>
		<path fill="#3A3A3A" d="M93.2,397.1H6.8c-0.6,0-1.1-0.5-1.1-1.1v-6.4c0-0.6,0.5-1.1,1.1-1.1s1.1,0.5,1.1,1.1v5.3H92v-5.3
			c0-0.6,0.5-1.1,1.1-1.1c0.6,0,1.1,0.5,1.1,1.1v6.4C94.3,396.6,93.8,397.1,93.2,397.1z"/>
	</g>
	<g>
		<path fill="#3A3A3A" d="M96.4,390.7H3.6c-0.6,0-1.1-0.5-1.1-1.1v-13.9c0-5.2,4.2-9.6,9.1-9.6h20.4c14-9.5,7.9-23,3-33.9
			c-2-4.5-3.8-8.3-3.8-11.3c0-12.3,9.7-17.9,18.7-17.9c9,0,18.7,5.6,18.7,17.9c0,3-1.7,6.8-3.8,11.3c-4.9,10.9-11,24.4,3,33.9h20.4
			c4.9,0,9.1,4.4,9.1,9.6v13.9C97.5,390.2,97,390.7,96.4,390.7z M4.8,388.4h90.5v-12.8c0-4-3.1-7.4-6.9-7.4H67.6
			c-0.2,0-0.4-0.1-0.6-0.2c-15.9-10.6-9.1-25.8-4.1-36.9c1.9-4.2,3.6-7.9,3.6-10.4c0-10.8-8.5-15.7-16.5-15.7
			c-7.9,0-16.5,4.9-16.5,15.7c0,2.5,1.7,6.1,3.6,10.4c5,11.1,11.9,26.3-4.1,36.9c-0.2,0.1-0.4,0.2-0.6,0.2H11.6
			c-3.7,0-6.9,3.4-6.9,7.4V388.4z"/>
	</g>
</g>
<g>
	<g>
		<path fill="#3A3A3A" d="M284.7,294.3h-24.7v-28.8h-20.1v28.8h-24.7v-39.5c0-0.6,0.5-1.1,1.1-1.1s1.1,0.5,1.1,1.1V292h20.1v-28.8
			h24.7V292h20.1v-37.2c0-0.6,0.5-1.1,1.1-1.1c0.6,0,1.1,0.5,1.1,1.1V294.3z"/>
	</g>
	<g>
		<path fill="#3A3A3A" d="M296.4,254.3c-0.3,0-0.6-0.1-0.8-0.3L250,208.4L204.4,254c-0.4,0.4-1.2,0.4-1.6,0c-0.4-0.4-0.4-1.2,0-1.6
			l46.4-46.4c0.4-0.4,1.2-0.4,1.6,0l46.4,46.4c0.4,0.4,0.4,1.2,0,1.6C296.9,254.2,296.7,254.3,296.4,254.3z"/>
	</g>
	<g>
		<path fill="#3A3A3A" d="M280.4,227.2c-0.6,0-1.1-0.5-1.1-1.1v-14.9h-14.9c-0.6,0-1.1-0.5-1.1-1.1s0.5-1.1,1.1-1.1h17.1V226
			C281.5,226.6,281,227.2,280.4,227.2z"/>
	</g>
</g>
<g>
	<g>
		<path fill="#3A3A3A" d="M150,397.5c-0.1,0-0.2,0-0.3,0c-34.8-9.7-39-31.9-39.2-32.9c0-0.1,0-0.1,0-0.2v-57.6c0-0.5,0.3-0.9,0.7-1
			c0.4-0.2,0.9-0.1,1.2,0.2c4.5,4.5,8.4,6.1,15.2,6.1c8.1,0,17.2-3.9,21.4-9.2c0.4-0.5,1.4-0.5,1.8,0c4.3,5.3,13.3,9.2,21.5,9.2
			c6.7,0,10.7-1.6,15.2-6.1c0.3-0.3,0.8-0.4,1.2-0.2c0.4,0.2,0.7,0.6,0.7,1v57.6c0,0.1,0,0.1,0,0.2c-0.2,0.9-4.4,23.1-39.2,32.9
			C150.2,397.5,150.1,397.5,150,397.5z M112.8,364.3c0.3,1.5,5.3,21.8,37.2,30.9c32-9.1,36.9-29.4,37.2-30.9v-54.9
			c-4.2,3.6-8.5,4.9-14.9,4.9c-8.4,0-17.4-3.7-22.4-9c-5,5.4-13.9,9-22.4,9c-6.4,0-10.6-1.4-14.9-4.9V364.3z"/>
	</g>
	<g>
		<path fill="#3A3A3A" d="M156.4,371.9h-12.8c-0.6,0-1.1-0.5-1.1-1.1v-14.9h-14.9c-0.6,0-1.1-0.5-1.1-1.1V342c0-0.6,0.5-1.1,1.1-1.1
			h14.9V326c0-0.6,0.5-1.1,1.1-1.1h12.8c0.6,0,1.1,0.5,1.1,1.1v14.9h14.9c0.6,0,1.1,0.5,1.1,1.1v12.8c0,0.6-0.5,1.1-1.1,1.1h-14.9
			v14.9C157.5,371.4,157,371.9,156.4,371.9z M144.7,369.7h10.5v-14.9c0-0.6,0.5-1.1,1.1-1.1h14.9v-10.5h-14.9
			c-0.6,0-1.1-0.5-1.1-1.1v-14.9h-10.5V342c0,0.6-0.5,1.1-1.1,1.1h-14.9v10.5h14.9c0.6,0,1.1,0.5,1.1,1.1V369.7z"/>
	</g>
</g>
<g>
	<g>
		<path fill="#3A3A3A" d="M256.4,397.5h-4c-2.9,0-5.9-1.4-5.9-4.3v-32c0-3.7,3-6.5,7.3-6.5c3.8,0,7.8,2.3,7.8,6.5v32
			C261.5,395.8,259.5,397.5,256.4,397.5z M253.7,357c-2.5,0-5,1.3-5,4.2v32c0,1.5,2.2,2.1,3.7,2.1h4c1.3,0,2.9-0.4,2.9-2.1v-32
			C259.3,358.6,256.4,357,253.7,357z"/>
	</g>
	<g>
		<path fill="#3A3A3A" d="M254,357c-0.6,0-1.1-0.5-1.1-1.1V342c0-1.1-0.9-2.1-2.1-2.1h-32c-2.4,0-4.3-1.9-4.3-4.3v-16
			c0-2.4,1.9-4.3,4.3-4.3h3.2c0.6,0,1.1,0.5,1.1,1.1c0,0.6-0.5,1.1-1.1,1.1h-3.2c-1.1,0-2.1,0.9-2.1,2.1v16c0,1.1,0.9,2.1,2.1,2.1
			h32c2.4,0,4.3,1.9,4.3,4.3v13.9C255.1,356.5,254.6,357,254,357z"/>
	</g>
	<g>
		<path fill="#3A3A3A" d="M279.6,327.2H222c-0.6,0-1.1-0.5-1.1-1.1v-22.4c0-0.6,0.5-1.1,1.1-1.1h57.6c0.6,0,1.1,0.5,1.1,1.1V326
			C280.7,326.6,280.2,327.2,279.6,327.2z M223.2,324.9h55.3v-20.1h-55.3V324.9z"/>
	</g>
	<g>
		<path fill="#3A3A3A" d="M284.4,316.9h-4.8c-0.6,0-1.1-0.5-1.1-1.1c0-0.6,0.5-1.1,1.1-1.1h4.8c0.6,0,1.1,0.5,1.1,1.1
			C285.5,316.4,285,316.9,284.4,316.9z"/>
	</g>
</g>
<g>
	<g>
		<path fill="#3A3A3A" d="M355.2,397.5H304c-0.6,0-1.1-0.5-1.1-1.1c0-14.1,7.3-23,19.2-23.5v-4.2H320c-0.6,0-1.1-0.5-1.1-1.1v-6.4
			c0-0.6,0.5-1.1,1.1-1.1h19.2c0.6,0,1.1,0.5,1.1,1.1v6.4c0,0.6-0.5,1.1-1.1,1.1h-2.1v4.2c11.9,0.5,19.2,9.4,19.2,23.5
			C356.3,397,355.8,397.5,355.2,397.5z M305.2,395.2h48.9c-0.4-12.6-7.1-20.1-18-20.1c-0.6,0-1.1-0.5-1.1-1.1v-6.4
			c0-0.6,0.5-1.1,1.1-1.1h2.1v-4.1h-16.9v4.1h2.1c0.6,0,1.1,0.5,1.1,1.1v6.4c0,0.6-0.5,1.1-1.1,1.1
			C312.3,375.1,305.6,382.6,305.2,395.2z"/>
	</g>
	<g>
		<path fill="#3A3A3A" d="M345.6,354.3c-0.3,0-0.6-0.1-0.8-0.3c-0.4-0.4-0.4-1.2,0-1.6l48-48c0.4-0.4,1.2-0.4,1.6,0
			c0.4,0.4,0.4,1.2,0,1.6l-48,48C346.2,354.2,345.9,354.3,345.6,354.3z"/>
	</g>
	<g>
		<path fill="#3A3A3A" d="M352,347.9c-0.3,0-0.6-0.1-0.8-0.3c-3-3-3.2-8-0.7-14.2c2.3-5.7,6.9-12.2,12.8-18.1
			c6.2-6.3,12.9-10.6,17-12.7c0.4-0.2,0.8-0.2,1.1,0.1c0.3,0.2,0.5,0.6,0.5,1V318c0,0.6-0.5,1.1-1.1,1.1c-0.6,0-1.1-0.5-1.1-1.1
			v-12.5c-3.9,2.2-9.5,6.1-14.7,11.4c-5.7,5.7-10.1,11.9-12.3,17.3c-2.2,5.3-2.1,9.5,0.2,11.8c0.4,0.4,0.4,1.2,0,1.6
			C352.6,347.8,352.3,347.9,352,347.9z"/>
	</g>
	<g>
		<path fill="#3A3A3A" d="M387.2,333.5h-20.8c-0.6,0-1.1-0.5-1.1-1.1c0-0.6,0.5-1.1,1.1-1.1h20.8c0.6,0,1.1,0.5,1.1,1.1
			C388.3,333,387.8,333.5,387.2,333.5z"/>
	</g>
	<g>
		<path fill="#3A3A3A" d="M360.4,350.8c-3.9,0-7.1-1.1-9.2-3.2c-0.4-0.4-0.4-1.2,0-1.6c0.4-0.4,1.2-0.4,1.6,0
			c1.7,1.7,4.5,2.6,7.8,2.5c6.2-0.1,13.1-3.3,19-8.6H360c-0.6,0-1.1-0.5-1.1-1.1c0-0.6,0.5-1.1,1.1-1.1h22.4c0.5,0,0.9,0.3,1,0.7
			c0.2,0.4,0.1,0.9-0.2,1.2c-6.6,6.9-15,11.1-22.5,11.2C360.6,350.8,360.5,350.8,360.4,350.8z"/>
	</g>
	<g>
		<path fill="#3A3A3A" d="M392,327.2h-19.2c-0.6,0-1.1-0.5-1.1-1.1c0-0.6,0.5-1.1,1.1-1.1h18.4c4.2-9.5,4.7-15.7,1.5-18.8
			c-0.4-0.4-0.4-1.2,0-1.6c0.4-0.4,1.2-0.4,1.6,0c4,4,3.6,11-1.4,22.1C392.8,326.9,392.4,327.2,392,327.2z"/>
	</g>
</g>
<g>
	<g>
		<path fill="#3A3A3A" d="M494.8,397.5h-89.6V389c0-6.4,4-12.1,10-14.2l22.7-8.4v-10.6h2.6v12.4l-24.4,9c-4.9,1.8-8.3,6.5-8.3,11.8
			v6h84.4v-6c0-5.2-3.5-10-8.4-11.8l-24.2-9v-13.2h2.6v11.5l22.5,8.4c6,2.2,10.1,7.9,10.1,14.2V397.5z"/>
	</g>
	<g>
		<path fill="#3A3A3A" d="M449.3,359.9c-13.3,0-24.1-12.9-24.1-28.7c0-15.8,10.8-28.7,24.1-28.7c13.3,0,24.1,12.9,24.1,28.7
			C473.5,347,462.7,359.9,449.3,359.9z M449.3,305.1c-11.9,0-21.6,11.7-21.6,26.1s9.7,26.1,21.6,26.1c11.9,0,21.6-11.7,21.6-26.1
			S461.2,305.1,449.3,305.1z"/>
	</g>
	<g>
		<path fill="#3A3A3A" d="M466.2,330.6c-5.5,0-9.8-2.6-13.4-8.1c-3.5,4.4-10.7,7.7-17.2,7.7c-3.5,0-6.5-0.7-9.4-2.3l1.2-2.3
			c2.6,1.4,5.2,2,8.3,2c6.3,0,13.8-3.8,16.1-8.1l1.1-2.1l1.2,2c4.1,7.2,8.7,9.6,15.7,8.2c0.5-0.1,1-0.1,1.5-0.1c0.3,0,0.5,0,0.8,0
			l0.3,2.6c-0.4,0-0.7,0.1-1.1,0.1c-0.4,0-0.7,0-1,0.1C468.8,330.5,467.4,330.6,466.2,330.6z"/>
	</g>
</g>
<g>
	<g>
		<path fill="#3A3A3A" d="M38.8,62.3c-0.3,0-0.6-0.1-0.8-0.3c-0.4-0.4-0.4-1.2,0-1.6l48-48c0.4-0.4,1.2-0.4,1.6,0
			c0.4,0.4,0.4,1.2,0,1.6l-48,48C39.4,62.2,39.1,62.3,38.8,62.3z"/>
	</g>
	<g>
		<path fill="#3A3A3A" d="M77.9,36.3c-3.2,0-6.4-1.6-9.5-4.7c-3.9-3.9-5.4-7.9-4.4-11.8C66.5,9.2,85.6,2.8,86.4,2.6
			c0.3-0.1,0.7-0.1,1,0.2c0.3,0.2,0.5,0.6,0.5,0.9v8.5h8.5c0.4,0,0.7,0.2,0.9,0.5c0.2,0.3,0.3,0.7,0.2,1
			C97.1,14.5,89.9,36.3,77.9,36.3z M85.6,5.2c-4.5,1.7-17.6,7.3-19.5,15c-0.8,3.2,0.5,6.4,3.8,9.7c2.7,2.7,5.3,4,7.9,4
			c8.7,0,15-14.9,16.8-19.7h-8c-0.6,0-1.1-0.5-1.1-1.1V5.2z"/>
	</g>
	<g>
		<path fill="#3A3A3A" d="M77.2,24c-0.6,0-1.1-0.5-1.1-1.1v-15c0-0.6,0.5-1.1,1.1-1.1s1.1,0.5,1.1,1.1v15C78.3,23.4,77.8,24,77.2,24
			z"/>
	</g>
	<g>
		<path fill="#3A3A3A" d="M3.6,97.5c-0.3,0-0.6-0.1-0.8-0.3c-0.4-0.4-0.4-1.2,0-1.6l10.3-10.3c0.4-0.4,1.2-0.4,1.6,0
			c0.4,0.4,0.4,1.2,0,1.6L4.4,97.2C4.2,97.4,3.9,97.5,3.6,97.5z"/>
	</g>
	<g>
		<path fill="#3A3A3A" d="M74,97.5c-0.3,0-0.6-0.1-0.8-0.3L62.9,86.9c-0.4-0.4-0.4-1.2,0-1.6c0.4-0.4,1.2-0.4,1.6,0l10.3,10.3
			c0.4,0.4,0.4,1.2,0,1.6C74.6,97.4,74.3,97.5,74,97.5z"/>
	</g>
	<g>
		<path fill="#3A3A3A" d="M38.8,97.5c-20,0-36.3-16.3-36.3-36.3s16.3-36.3,36.3-36.3c20,0,36.3,16.3,36.3,36.3S58.8,97.5,38.8,97.5z
			 M38.8,27.2c-18.8,0-34,15.3-34,34s15.3,34,34,34c18.8,0,34-15.3,34-34S57.6,27.2,38.8,27.2z"/>
	</g>
	<g>
		<path fill="#3A3A3A" d="M38.8,84.7c-13,0-23.5-10.6-23.5-23.5s10.5-23.5,23.5-23.5c13,0,23.5,10.5,23.5,23.5S51.8,84.7,38.8,84.7z
			 M38.8,39.9c-11.7,0-21.2,9.5-21.2,21.2c0,11.7,9.5,21.2,21.2,21.2s21.2-9.5,21.2-21.2C60.1,49.5,50.5,39.9,38.8,39.9z"/>
	</g>
	<g>
		<path fill="#3A3A3A" d="M38.8,71.9c-5.9,0-10.7-4.8-10.7-10.7s4.8-10.7,10.7-10.7c5.9,0,10.7,4.8,10.7,10.7S44.7,71.9,38.8,71.9z
			 M38.8,52.7c-4.7,0-8.5,3.8-8.5,8.5s3.8,8.5,8.5,8.5c4.7,0,8.5-3.8,8.5-8.5S43.5,52.7,38.8,52.7z"/>
	</g>
	<g>
		<path fill="#3A3A3A" d="M38.8,63.9c-1.5,0-2.7-1.2-2.7-2.7s1.2-2.7,2.7-2.7c1.5,0,2.7,1.2,2.7,2.7S40.3,63.9,38.8,63.9z
			 M38.8,60.7c-0.3,0-0.5,0.2-0.5,0.5c0,0.3,0.2,0.5,0.5,0.5c0.3,0,0.5-0.2,0.5-0.5C39.3,60.9,39.1,60.7,38.8,60.7z"/>
	</g>
</g>
</svg>
