<?xml version="1.0" encoding="utf-8"?>
<!-- Generator: Adobe Illustrator 17.1.0, SVG Export Plug-In . SVG Version: 6.00 Build 0)  -->
<!DOCTYPE svg PUBLIC "-//W3C//DTD SVG 1.1//EN" "http://www.w3.org/Graphics/SVG/1.1/DTD/svg11.dtd">
<svg version="1.1" id="Layer_1" xmlns="http://www.w3.org/2000/svg" xmlns:xlink="http://www.w3.org/1999/xlink" x="0px" y="0px"
	 viewBox="0 0 40 40" enable-background="new 0 0 40 40" xml:space="preserve">
<path fill="#FFFFFF" d="M17.9,15l-0.1-0.2c-0.3-0.7-3.7-1.7-4-1.7l-0.2,0c-0.5,0.1-1,0.5-2.1,1.5c-1.2-0.6-2.9-2.1-3.7-3
	C7,10.7,6,9.1,5.6,7.9c1.2-1.1,1.7-1.6,1.8-2.1c0-0.3-0.6-3.8-1.2-4.2L6,1.5C5.6,1.3,5,0.9,4.3,1C4.2,1.1,4,1.1,3.9,1.2
	c-0.4,0.3-1.5,1-2,2c-0.3,0.6-0.4,6.2,3.8,11c4.2,4.7,9.3,4.9,10.1,4.7l0,0l0.1,0c1-0.4,1.9-1.4,2.3-1.8
	C18.6,16.4,18.2,15.5,17.9,15z"/>
<path fill="#753977" d="M17.9,35l-0.1-0.2c-0.3-0.7-3.7-1.7-4-1.7l-0.2,0c-0.5,0.1-1,0.5-2.1,1.5c-1.2-0.6-2.9-2.1-3.7-3
	c-0.9-1-1.9-2.6-2.3-3.8c1.2-1.1,1.7-1.6,1.8-2.1c0-0.3-0.6-3.8-1.2-4.2L6,21.5c-0.4-0.3-1-0.6-1.7-0.5c-0.2,0-0.3,0.1-0.5,0.2
	c-0.4,0.3-1.5,1-2,2c-0.3,0.6-0.4,6.2,3.8,11c4.2,4.7,9.3,4.9,10.1,4.7l0,0l0.1,0c1-0.4,1.9-1.4,2.3-1.8
	C18.6,36.4,18.2,35.5,17.9,35z"/>
<path fill="#FFFFFF" d="M21,1v13.5h4.5V19l6.3-4.5H39V1H21z M36.8,12.3h-4.5l-4.5,3.4v-3.4h-4.5v-9h13.5V12.3z"/>
<path fill="#753977" d="M21,21v13.5h4.5V39l6.3-4.5H39V21H21z M36.8,32.3h-4.5l-4.5,3.4v-3.4h-4.5v-9h13.5V32.3z"/>
</svg>
